<?xml version="1.0" encoding="UTF-8" standalone="no"?>
<svg
   xmlns:dc="http://purl.org/dc/elements/1.1/"
   xmlns:cc="http://creativecommons.org/ns#"
   xmlns:rdf="http://www.w3.org/1999/02/22-rdf-syntax-ns#"
   xmlns:svg="http://www.w3.org/2000/svg"
   xmlns="http://www.w3.org/2000/svg"
   xmlns:sodipodi="http://sodipodi.sourceforge.net/DTD/sodipodi-0.dtd"
   xmlns:inkscape="http://www.inkscape.org/namespaces/inkscape"
   inkscape:version="1.0 (6e3e5246a0, 2020-05-07)"
   sodipodi:docname="headphones.svg"
   id="svg24"
   version="1.1"
   viewBox="0 0 150 180"
   height="180"
   width="150">
  <metadata
     id="metadata28">
    <rdf:RDF>
      <cc:Work
         rdf:about="">
        <dc:format>image/svg+xml</dc:format>
        <dc:type
           rdf:resource="http://purl.org/dc/dcmitype/StillImage" />
      </cc:Work>
    </rdf:RDF>
  </metadata>
  <sodipodi:namedview
     inkscape:current-layer="icon"
     inkscape:window-maximized="1"
     inkscape:window-y="0"
     inkscape:window-x="0"
     inkscape:cy="92.518697"
     inkscape:cx="103.6563"
     inkscape:zoom="3.4491097"
     showgrid="false"
     id="namedview26"
     inkscape:window-height="1052"
     inkscape:window-width="1920"
     inkscape:pageshadow="2"
     inkscape:pageopacity="0"
     guidetolerance="10"
     gridtolerance="10"
     objecttolerance="10"
     borderopacity="1"
     bordercolor="#666666"
     pagecolor="#ffffff" />
  <defs
     id="defs5">
    <clipPath
       id="clip-icon">
      <rect
         id="rect2"
         height="180"
         width="150" />
    </clipPath>
  </defs>
  <g
     clip-path="url(#clip-icon)"
     id="icon">
    <rect
       style="fill:none"
       id="rect7"
       fill="#fff"
       height="180"
       width="150" />
    <g
       opacity="0.4"
       transform="translate(-8352.7847,-9073.6586)"
       data-name="Group 2234"
       id="Group_2234">
      <path
         fill="#eae8e5"
         transform="translate(-15.351,-28.965)"
         d="m 8418.9,9200.139 2.361,-7.082 c 1.18,-3.541 8.262,-11.8 8.262,-11.8 l 14.162,-14.162 20.064,3.541 3.54,20.063 0.925,7.02 -11.547,23.667 -7.081,9.441 -31.866,-17.7 z"
         data-name="Path 3563"
         id="Path_3563" />
      <path
         fill="#eae8e5"
         transform="translate(-24.027,-11.033)"
         d="m 8495.434,9139.855 a 20.816,20.816 0 0 0 0.6,2.223 99.084,99.084 0 0 0 4.721,11.8 l -5.9,1.18 c 0,0 1.182,24.784 -4.721,25.965 -5.903,1.181 -20.063,-2.36 -25.966,-5.9 -5.903,-3.54 -10.622,-10.621 -10.622,-15.342 a 16.336,16.336 0 0 0 -2.36,-8.263 l -3.541,1.181 -3.541,-27.146 40.129,-12.982 12.982,3.54 -2.36,7.081 c 0,0 -0.96,9.586 0.579,16.663 z"
         data-name="Path 3564"
         id="Path_3564" />
      <path
         fill="#726e68"
         transform="translate(-13.034)"
         d="m 8418.947,9164.091 c 0,0 20.064,-1.179 21.244,-12.981 1.18,-11.802 -1.18,-11.8 -2.361,-14.164 -1.181,-2.364 -4.721,-9.441 1.182,-12.982 5.903,-3.541 10.62,7.081 10.62,7.081 0,0 0.315,-16.648 5.9,-18.884 5.9,-2.359 21.245,0 21.245,0 0,0 25.287,0.83 20.064,-20.063 -5.9,-23.605 -38.949,-8.262 -47.212,-7.083 -8.263,1.179 -26.808,3.9 -33.046,9.442 -10.621,9.442 -4.838,19.714 1.182,37.769 4.723,14.162 1.182,31.865 1.182,31.865 z"
         data-name="Path 3565"
         id="Path_3565" />
      <path
         fill="#726e68"
         transform="translate(-13.034)"
         d="m 8418.947,9164.091 c 0,0 20.064,-1.179 21.244,-12.981 1.18,-11.802 -1.18,-11.8 -2.361,-14.164 -1.181,-2.364 -4.721,-9.441 1.182,-12.982 5.903,-3.541 10.62,7.081 10.62,7.081 0,0 0.315,-16.648 5.9,-18.884 5.9,-2.359 21.245,0 21.245,0 0,0 25.287,0.83 20.064,-20.063 -5.9,-23.605 -38.949,-8.262 -47.212,-7.083 -8.263,1.179 -26.808,3.9 -33.046,9.442 -10.621,9.442 -4.838,19.714 1.182,37.769 4.723,14.162 1.182,31.865 1.182,31.865 z"
         data-name="Path 3566"
         id="Path_3566" />
      <circle
         stroke-width="0.599"
         stroke-miterlimit="10"
         stroke="#c1a42d"
         fill="none"
         transform="translate(8431.696,9128.538)"
         r="7.033"
         cy="7.033"
         cx="7.033"
         data-name="Ellipse 477"
         id="Ellipse_477" />
      <circle
         stroke-width="0.524"
         stroke-miterlimit="10"
         stroke="#c1a42d"
         fill="none"
         transform="translate(8433.152,9129.994)"
         r="5.5760002"
         cy="5.5760002"
         cx="5.5760002"
         data-name="Ellipse 478"
         id="Ellipse_478" />
      <circle
         stroke-width="0.449"
         stroke-miterlimit="10"
         stroke="#c1a42d"
         fill="none"
         transform="translate(8434.608,9131.452)"
         r="4.119"
         cy="4.119"
         cx="4.119"
         data-name="Ellipse 479"
         id="Ellipse_479" />
      <g
         transform="translate(8401.415,9122.008)"
         data-name="Group 2234"
         id="Group_2234-2">
        <path
           fill="#c1a42d"
           transform="translate(-8433.544,-9145.09)"
           d="m 8469.677,9150.652 a 3.738,3.738 0 0 0 -0.6,-1.449 c -0.244,2.271 -0.318,4.078 -0.336,4.691 a 3.758,3.758 0 0 0 0.936,-3.242 z"
           data-name="Path 3567"
           id="Path_3567" />
        <path
           fill="#c1a42d"
           transform="translate(-8416.296,-9150.131)"
           d="m 8420.738,9164.532 a 13.569,13.569 0 0 1 -2.587,0.228 1.645,1.645 0 0 0 -0.535,0.01 1.613,1.613 0 0 0 0.278,3.2 h 0.025 a 29.7,29.7 0 0 0 3.44,-0.182 c -0.166,-1.088 -0.363,-2.175 -0.6,-3.253 z"
           data-name="Path 3568"
           id="Path_3568" />
        <path
           fill="#c1a42d"
           transform="translate(-8418.483,-9145.856)"
           d="m 8440.021,9151.536 c -2.039,1.145 -4.2,2.354 -6.273,3.517 v -0.01 l -6.477,3.629 -0.113,0.05 a 13.561,13.561 0 0 1 -4.208,1.531 c 0.237,1.079 0.435,2.165 0.6,3.253 0.49,-0.057 1,-0.13 1.514,-0.224 1.877,-0.347 3.714,-1.323 4.682,-1.5 a 3.847,3.847 0 0 1 0.565,-0.149 3.781,3.781 0 0 1 2.155,0.229 l 0.09,0.039 a 6.884,6.884 0 0 0 2.383,0.313 4.07,4.07 0 0 0 0.541,-0.142 c 0.631,-0.353 1.285,-0.716 1.912,-1.064 l 3.627,-2.02 c -0.867,-2.018 -1.759,-4.897 -0.998,-7.455 z"
           data-name="Path 3569"
           id="Path_3569" />
        <path
           fill="#c1a42d"
           transform="translate(-8430.413,-9143.074)"
           d="m 8472.5,9156.857 c 0,0 -0.758,-1.906 -1.126,-2.838 -1.2,-3.086 -2.854,-7.328 -2.854,-7.328 l -0.075,-0.113 a 5.532,5.532 0 0 0 -6.146,-3.412 5.69,5.69 0 0 0 -0.687,0.172 l -2.4,1.344 a 7.506,7.506 0 0 1 1.984,1.262 3.758,3.758 0 0 1 4.4,5.936 c -0.024,0.027 -0.056,0.047 -0.079,0.072 a 3.746,3.746 0 0 1 -1.713,1.008 l -0.175,0.068 a 2.182,2.182 0 0 0 -1.224,2.834 l 1.711,4.318 a 2.184,2.184 0 0 0 2.836,1.225 l 4.318,-1.711 a 2.187,2.187 0 0 0 1.23,-2.837 z"
           data-name="Path 3570"
           id="Path_3570" />
      </g>
      <path
         fill="#a5a093"
         transform="translate(0,-45.162)"
         d="m 8468.466,9265.907 c -8.26,-11.8 -27.146,-28.327 -27.146,-28.327 l -3.539,4.722 -34.229,-25.966 c 0,0 -22.424,15.344 -29.507,34.227 -1.438,3.838 -2.39,10.747 -2.993,19.318 a 99.344,99.344 0 0 0 64.385,23.569 100.387,100.387 0 0 0 16.3,-1.333 c 1.24,-0.2 2.474,-0.425 3.7,-0.673 a 99.127,99.127 0 0 0 25.938,-9.181 c -4.281,-5.024 -9.191,-11.047 -12.909,-16.356 z"
         data-name="Path 3571"
         id="Path_3571" />
    </g>
  </g>
</svg>
