<?xml version="1.0" encoding="UTF-8" standalone="no"?>
<svg
   xmlns:dc="http://purl.org/dc/elements/1.1/"
   xmlns:cc="http://creativecommons.org/ns#"
   xmlns:rdf="http://www.w3.org/1999/02/22-rdf-syntax-ns#"
   xmlns:svg="http://www.w3.org/2000/svg"
   xmlns="http://www.w3.org/2000/svg"
   version="1.1"
   id="Layer_1"
   x="0px"
   y="0px"
   viewBox="0 0 515.9 136.1"
   style="enable-background:new 0 0 515.9 136.1;"
   xml:space="preserve"><metadata
   id="metadata75"><rdf:RDF><cc:Work
       rdf:about=""><dc:format>image/svg+xml</dc:format><dc:type
         rdf:resource="http://purl.org/dc/dcmitype/StillImage" /><dc:title></dc:title></cc:Work></rdf:RDF></metadata><defs
   id="defs73" />
<style
   type="text/css"
   id="style2">
	.st0{fill:#FFFFFF;}
</style>
<g
   id="g68"
   style="fill:#ffffff;fill-opacity:1">
	<polygon
   class="st0"
   points="75.5,5.1 54.5,71.6 54,71.6 33.5,5.1 3.6,5.1 3.6,94.5 104.6,94.5 104.6,5.1  "
   id="polygon4"
   style="fill:#ffffff;fill-opacity:1" />
	<g
   id="g10"
   style="fill:#ffffff;fill-opacity:1">
		<path
   class="st0"
   d="M218.4,4.2v50.1c0,14.6-1.3,24.8-8.2,31.7c-7.8,8-17.9,9.4-30.1,9.4c-12.3,0-22.4-1.4-30.4-9.4    c-6.8-6.9-8.1-17.1-8.1-31.7V4.2"
   id="path6"
   style="fill:#ffffff;fill-opacity:1" />
		<path
   class="st0"
   d="M319.5,87.3c-7.4,5.3-17.4,6.3-32.7,6.3h-31.4V4.2h31.2c13.7,0,22.2,0.4,29.5,5.9c5.3,3.9,8,10,8,17.7    c0,9.1-3.5,15-11.5,19.7v0.5c9.1,3,15.3,9,15.3,21.1C327.7,75.8,325.7,82.6,319.5,87.3"
   id="path8"
   style="fill:#ffffff;fill-opacity:1" />
	</g>
	<rect
   x="364.6"
   y="4.2"
   class="st0"
   width="20.9"
   height="89.4"
   id="rect12"
   style="fill:#ffffff;fill-opacity:1" />
	<polygon
   class="st0"
   points="454.9,4.2 422.5,93.6 513.6,93.6 481.2,4.2  "
   id="polygon14"
   style="fill:#ffffff;fill-opacity:1" />
	<g
   id="g18"
   style="fill:#ffffff;fill-opacity:1">
		<path
   class="st0"
   d="M20.8,130.4c-1.2,1.3-3.6,2.1-5.7,2.1c-6,0-10.9-4.6-10.9-10.9c0-6.3,4.8-10.9,10.9-10.9    c4.1,0,7.6,2.2,9.5,5.6l-5.1,1.3c-1-1.2-2.8-1.9-4.4-1.9c-3.5,0-5.6,2.5-5.6,5.9c0,3.7,2.5,6,5.9,6c3.3,0,4.8-1.7,5.4-3.3v0h-5.5    v-4h9.8v11.8h-4.3C20.8,130.7,20.8,130.4,20.8,130.4L20.8,130.4z"
   id="path16"
   style="fill:#ffffff;fill-opacity:1" />
	</g>
	<polygon
   class="st0"
   points="47.7,127.4 47.7,132.1 32.4,132.1 32.4,111.2 47.6,111.2 47.6,115.9 37.4,115.9 37.4,119.3    45.4,119.3 45.4,123.7 37.4,123.7 37.4,127.4  "
   id="polygon20"
   style="fill:#ffffff;fill-opacity:1" />
	<g
   id="g30"
   style="fill:#ffffff;fill-opacity:1">
		<path
   class="st0"
   d="M64,127.5c3.4,0,5.7-2.4,5.7-5.9c0-3.5-2.2-5.9-5.7-5.9c-3.4,0-5.6,2.4-5.6,5.9    C58.4,125.1,60.6,127.5,64,127.5 M64,110.7c6,0,10.9,4.6,10.9,10.9c0,6.3-4.9,10.9-10.9,10.9c-6,0-10.8-4.6-10.8-10.9    C53.2,115.3,58,110.7,64,110.7"
   id="path22"
   style="fill:#ffffff;fill-opacity:1" />
		<path
   class="st0"
   d="M102.1,111.2v20.9h-4.9V127c0-5,0.2-7.4,0.1-7.4h0c0,0-1.7,2.9-1.9,3.2l-2.5,4.2h-2.6l-2.5-4.2    c-0.2-0.3-1.9-3.2-1.9-3.2h0c0,0,0.1,2.5,0.1,7.4v5.1h-4.9v-20.9h4.7l3.9,6.3c1.5,2.5,1.8,3,1.8,3h0c0,0,0.3-0.5,1.8-3l3.9-6.3    H102.1z"
   id="path24"
   style="fill:#ffffff;fill-opacity:1" />
		<path
   class="st0"
   d="M127.6,111.2v11.6c0,6.3-3.7,9.7-9.2,9.7c-5.6,0-9.2-3.4-9.2-9.7v-11.6h5v11.5c0,3.6,1.5,5.1,4.2,5.1    c2.7,0,4.2-1.6,4.2-5.1v-11.5H127.6z"
   id="path26"
   style="fill:#ffffff;fill-opacity:1" />
		<path
   class="st0"
   d="M145.2,117.8c-0.5-1.9-2.1-2.7-3.6-2.7c-1.5,0-2.4,0.7-2.4,1.6c0,1.4,2.1,1.9,4.6,2.8    c3.1,1.1,6.4,2.9,6.4,6.5c0,3.8-3.3,6.5-8.2,6.5c-4.4,0-7.5-2.4-8.8-6.3l4.8-1.3c0.5,1.6,2,3.2,4.2,3.2c1.8,0,2.6-0.8,2.6-1.9    c0-1.7-2.4-2.1-5.4-3.2c-2.5-1-5.4-2.3-5.4-6c0-3.3,3.3-6.2,7.8-6.2c4,0,7.2,2.5,8.2,5.7L145.2,117.8z"
   id="path28"
   style="fill:#ffffff;fill-opacity:1" />
	</g>
	<polygon
   class="st0"
   points="171.9,127.4 171.9,132.1 156.5,132.1 156.5,111.2 171.7,111.2 171.7,115.9 161.5,115.9 161.5,119.3    169.5,119.3 169.5,123.7 161.5,123.7 161.5,127.4  "
   id="polygon32"
   style="fill:#ffffff;fill-opacity:1" />
	<g
   id="g38"
   style="fill:#ffffff;fill-opacity:1">
		<path
   class="st0"
   d="M188.2,127.5c3.4,0,5.7-2.4,5.7-5.9c0-3.5-2.2-5.9-5.7-5.9c-3.4,0-5.6,2.4-5.6,5.9    C182.5,125.1,184.8,127.5,188.2,127.5 M188.2,110.7c6,0,10.9,4.6,10.9,10.9c0,6.3-4.9,10.9-10.9,10.9c-6,0-10.8-4.6-10.8-10.9    C177.3,115.3,182.2,110.7,188.2,110.7"
   id="path34"
   style="fill:#ffffff;fill-opacity:1" />
		<path
   class="st0"
   d="M225.8,130.4c4.7,0,8.8-3.3,8.8-8.7c0-5.5-4.1-8.9-9.1-8.9h-7v17.6H225.8z M225.5,111.2    c6,0,10.8,4.3,10.8,10.6c0,6.2-4.8,10.3-10.6,10.3h-8.9v-20.9H225.5z"
   id="path36"
   style="fill:#ffffff;fill-opacity:1" />
	</g>
	<polygon
   class="st0"
   points="257.3,130.4 257.3,132.1 243.5,132.1 243.5,111.2 257.1,111.2 257.1,112.8 245.2,112.8 245.2,120.1    254.8,120.1 254.8,121.7 245.2,121.7 245.2,130.4  "
   id="polygon40"
   style="fill:#ffffff;fill-opacity:1" />
	<polygon
   class="st0"
   points="278.5,130.4 278.5,132.1 265.2,132.1 265.2,111.2 266.9,111.2 266.9,130.4  "
   id="polygon42"
   style="fill:#ffffff;fill-opacity:1" />
	<polygon
   class="st0"
   points="298.5,130.4 298.5,132.1 285.2,132.1 285.2,111.2 286.9,111.2 286.9,130.4  "
   id="polygon44"
   style="fill:#ffffff;fill-opacity:1" />
	<polygon
   class="st0"
   points="319,130.4 319,132.1 305.2,132.1 305.2,111.2 318.8,111.2 318.8,112.8 306.9,112.8 306.9,120.1    316.5,120.1 316.5,121.7 306.9,121.7 306.9,130.4  "
   id="polygon46"
   style="fill:#ffffff;fill-opacity:1" />
	<g
   id="g50"
   style="fill:#ffffff;fill-opacity:1">
		<path
   class="st0"
   d="M345.4,127.9c1.7,0,2.7-1,2.7-2.4c0-1.5-1.1-2.4-2.7-2.4h-3.5v4.7H345.4z M344.9,119.3c1.3,0,2.3-0.8,2.3-2    c0-1.1-1-2-2.3-2h-3v3.9H344.9z M346,111.2c3.7,0,6.3,2.5,6.3,5.5c0,2-1.3,3.6-2.6,4.1v0c2,0.5,3.7,2.8,3.7,4.9    c0,3.5-2.3,6.3-7.5,6.3h-9v-20.9H346z"
   id="path48"
   style="fill:#ffffff;fill-opacity:1" />
	</g>
	<rect
   x="359.8"
   y="111.2"
   class="st0"
   width="5"
   height="20.9"
   id="rect52"
   style="fill:#ffffff;fill-opacity:1" />
	<g
   id="g64"
   style="fill:#ffffff;fill-opacity:1">
		<path
   class="st0"
   d="M383,124.4l-1.5-4.1c-0.4-1.2-1-3.1-1-3.1h0c0,0-0.6,1.9-1,3.1l-1.5,4.1H383z M384.6,128.8h-8.3l-1.2,3.3    h-5.4l8.4-20.9h4.8l8.4,20.9h-5.4L384.6,128.8z"
   id="path54"
   style="fill:#ffffff;fill-opacity:1" />
		<path
   class="st0"
   d="M414.9,111.2v20.9h-4.7l-4.3-5.8c-1.9-2.6-4.7-6.6-4.8-6.6h0c0,0,0,3.2,0,7.8v4.6h-5v-20.9h4.7l4.5,6    c1.3,1.8,4.5,6.3,4.6,6.3h0c0,0,0-3.7,0-7.5v-4.8H414.9z"
   id="path56"
   style="fill:#ffffff;fill-opacity:1" />
		<path
   class="st0"
   d="M436.4,117.6c-1-1.2-2.7-1.9-4.4-1.9c-3.5,0-5.6,2.5-5.6,5.9c0,3.6,2.4,5.9,5.6,5.9c2,0,3.9-1,4.8-2.4    l5.1,1.3c-1.7,3.7-5.5,6.2-9.9,6.2c-6,0-10.9-4.6-10.9-10.9c0-6.3,4.8-10.9,10.9-10.9c4.1,0,7.7,2.2,9.5,5.6L436.4,117.6z"
   id="path58"
   style="fill:#ffffff;fill-opacity:1" />
		<path
   class="st0"
   d="M457.9,124.4l-1.5-4.1c-0.4-1.2-1-3.1-1-3.1h0c0,0-0.6,1.9-1,3.1l-1.5,4.1H457.9z M459.5,128.8h-8.3l-1.2,3.3    h-5.4l8.4-20.9h4.8l8.4,20.9h-5.4L459.5,128.8z"
   id="path60"
   style="fill:#ffffff;fill-opacity:1" />
		<path
   class="st0"
   d="M489.8,111.2v20.9h-4.7l-4.3-5.8c-1.9-2.6-4.7-6.6-4.8-6.6h0c0,0,0,3.2,0,7.8v4.6h-5v-20.9h4.7l4.5,6    c1.3,1.8,4.5,6.3,4.6,6.3h0c0,0,0-3.7,0-7.5v-4.8H489.8z"
   id="path62"
   style="fill:#ffffff;fill-opacity:1" />
	</g>
	<polygon
   class="st0"
   points="513,127.4 513,132.1 497.6,132.1 497.6,111.2 512.8,111.2 512.8,115.9 502.7,115.9 502.7,119.3    510.6,119.3 510.6,123.7 502.7,123.7 502.7,127.4  "
   id="polygon66"
   style="fill:#ffffff;fill-opacity:1" />
</g>
</svg>
