<?xml version="1.0" encoding="UTF-8" standalone="no"?>
<svg
   xmlns:dc="http://purl.org/dc/elements/1.1/"
   xmlns:cc="http://creativecommons.org/ns#"
   xmlns:rdf="http://www.w3.org/1999/02/22-rdf-syntax-ns#"
   xmlns:svg="http://www.w3.org/2000/svg"
   xmlns="http://www.w3.org/2000/svg"
   viewBox="0 0 793.70667 793.70667"
   height="793.70667"
   width="793.70667"
   xml:space="preserve"
   id="svg2"
   version="1.1"><metadata
     id="metadata8"><rdf:RDF><cc:Work
         rdf:about=""><dc:format>image/svg+xml</dc:format><dc:type
           rdf:resource="http://purl.org/dc/dcmitype/StillImage" /><dc:title></dc:title></cc:Work></rdf:RDF></metadata><defs
     id="defs6"><clipPath
       id="clipPath18"
       clipPathUnits="userSpaceOnUse"><path
         id="path16"
         d="M 0,595.28 H 595.28 V 0 H 0 Z" /></clipPath></defs><g
     transform="matrix(1.3333333,0,0,-1.3333333,0,793.70667)"
     id="g10"><g
       style="fill:#f2efeb;fill-opacity:1"
       id="g12"><g
         style="fill:#f2efeb;fill-opacity:1"
         clip-path="url(#clipPath18)"
         id="g14"><g
           style="fill:#f2efeb;fill-opacity:1"
           transform="translate(367.6447,331.8032)"
           id="g20"><path
             id="path22"
             style="fill:#f2efeb;fill-opacity:1;fill-rule:nonzero;stroke:none"
             d="M 0,0 C -0.006,-0.001 -0.012,-0.001 -0.018,-0.002 H 0 c -13.294,-1.508 -26.396,-2.642 -38.846,-3.494 -0.794,-0.055 -1.554,-0.096 -2.343,-0.149 -2.385,-0.157 -4.757,-0.31 -7.088,-0.447 -1.443,-0.086 -2.846,-0.159 -4.267,-0.237 -1.688,-0.092 -3.371,-0.184 -5.024,-0.267 -1.505,-0.075 -2.975,-0.144 -4.448,-0.212 -1.481,-0.067 -2.944,-0.132 -4.39,-0.192 -1.541,-0.064 -3.062,-0.126 -4.562,-0.182 -1.203,-0.045 -2.375,-0.086 -3.55,-0.126 -1.668,-0.057 -3.326,-0.114 -4.936,-0.162 -0.534,-0.015 -1.037,-0.028 -1.564,-0.042 -10.407,-0.295 -19.586,-0.415 -26.908,-0.439 -0.135,-0.001 -0.256,0 -0.39,-0.001 -1.961,-0.006 -3.77,-0.005 -5.457,0 -0.246,0 -0.487,0.001 -0.727,0.002 -0.061,0.001 -0.123,0 -0.183,0.001 -2.298,0.009 -4.335,0.024 -6.038,0.043 -0.697,0.009 -1.349,0.017 -1.939,0.025 -0.058,0.001 -0.133,0.002 -0.19,0.003 -2.764,0.041 -4.329,0.082 -4.424,0.084 l -0.916,0.026 5.915,-13.75 c 4.823,0.104 16.703,0.434 25.236,1.308 37.909,3.448 126.024,14.812 186.709,33.324 0.12,0.277 0.25,0.561 0.367,0.835 C 65.697,10.313 25.611,2.905 0,0" /></g><g
           style="fill:#f2efeb;fill-opacity:1"
           transform="translate(383.1643,343.4796)"
           id="g24"><path
             id="path26"
             style="fill:#f2efeb;fill-opacity:1;fill-rule:nonzero;stroke:none"
             d="M 0,0 C -0.005,-0.001 -0.01,-0.001 -0.017,-0.001 L 0,-0.002 c -6.451,-0.442 -13.095,-0.805 -19.944,-1.094 -1.601,-0.067 -3.191,-0.121 -4.785,-0.177 -0.802,-0.029 -1.607,-0.064 -2.407,-0.09 -1.5,-0.05 -2.991,-0.089 -4.483,-0.131 -0.933,-0.025 -1.868,-0.055 -2.796,-0.077 -1.46,-0.036 -2.908,-0.063 -4.358,-0.091 -0.962,-0.019 -1.925,-0.04 -2.882,-0.056 -1.433,-0.024 -2.854,-0.04 -4.277,-0.057 -0.945,-0.011 -1.894,-0.023 -2.835,-0.031 -1.443,-0.013 -2.874,-0.019 -4.303,-0.025 -0.888,-0.004 -1.775,-0.008 -2.657,-0.009 -1.446,-0.003 -2.88,0 -4.309,0.004 -0.853,0.002 -1.7,0.005 -2.546,0.01 -1.455,0.007 -2.9,0.018 -4.336,0.031 -0.767,0.008 -1.527,0.017 -2.288,0.026 -1.49,0.018 -2.969,0.037 -4.434,0.06 -0.647,0.01 -1.286,0.022 -1.928,0.034 -1.571,0.028 -3.132,0.057 -4.673,0.091 -0.431,0.009 -0.852,0.02 -1.281,0.03 -1.715,0.04 -3.416,0.082 -5.088,0.129 -0.119,0.003 -0.234,0.007 -0.352,0.01 -14.603,0.412 -27.572,1.061 -37.896,1.699 -1.054,0.065 -2.081,0.13 -3.08,0.194 -0.402,0.026 -0.805,0.052 -1.197,0.078 -0.776,0.051 -1.525,0.101 -2.264,0.152 -1.016,0.069 -1.999,0.137 -2.943,0.204 -0.569,0.04 -1.136,0.081 -1.678,0.12 -0.546,0.04 -1.06,0.078 -1.577,0.117 -2.87,0.214 -5.298,0.407 -7.244,0.57 -0.165,0.014 -0.341,0.028 -0.499,0.042 -1.225,0.103 -2.238,0.192 -3.021,0.262 -1.216,0.109 -1.906,0.176 -1.968,0.182 l -1.915,0.19 5.925,-13.775 3.676,-0.063 1.19,-0.02 1.021,-0.018 1.549,-0.027 5.148,-0.089 1.868,-0.032 c 0,0 12.971,-0.304 21.023,-0.132 42.47,1.203 129.031,7.249 187.319,21.019 0.065,0.178 0.138,0.364 0.201,0.541 C 56.342,6.378 19.399,1.328 0,0" /></g><g
           style="fill:#f2efeb;fill-opacity:1"
           transform="translate(383.2855,352.7669)"
           id="g28"><path
             id="path30"
             style="fill:#f2efeb;fill-opacity:1;fill-rule:nonzero;stroke:none"
             d="m 0,0 c -7.895,-0.049 -15.994,-0.006 -24.48,0.216 -0.005,0 -0.011,0 -0.016,0.001 l 0.017,-0.003 c -4.17,0.109 -8.315,0.255 -12.435,0.423 -0.511,0.02 -1.025,0.038 -1.534,0.06 -1.667,0.07 -3.322,0.15 -4.976,0.229 -0.67,0.032 -1.343,0.061 -2.009,0.094 -1.563,0.079 -3.113,0.165 -4.663,0.25 -0.751,0.041 -1.505,0.08 -2.253,0.123 -1.489,0.085 -2.964,0.177 -4.438,0.268 -0.796,0.049 -1.594,0.097 -2.384,0.148 -1.448,0.093 -2.88,0.191 -4.312,0.289 -0.796,0.054 -1.594,0.107 -2.385,0.164 -1.409,0.1 -2.801,0.203 -4.193,0.307 -0.796,0.06 -1.595,0.119 -2.385,0.18 -1.415,0.109 -2.814,0.221 -4.21,0.334 -0.717,0.058 -1.434,0.115 -2.145,0.175 -1.447,0.12 -2.877,0.242 -4.302,0.365 -0.631,0.055 -1.262,0.111 -1.888,0.165 -1.478,0.132 -2.938,0.263 -4.388,0.398 -0.543,0.05 -1.084,0.1 -1.624,0.15 -1.522,0.143 -3.026,0.288 -4.515,0.433 -0.413,0.04 -0.823,0.081 -1.233,0.121 -1.558,0.154 -3.096,0.309 -4.613,0.464 -0.342,0.036 -0.68,0.071 -1.019,0.106 -1.593,0.165 -3.162,0.33 -4.705,0.496 -0.177,0.02 -0.353,0.039 -0.53,0.058 -6.688,0.723 -12.92,1.451 -18.524,2.145 -0.874,0.109 -1.724,0.215 -2.569,0.322 -1.359,0.172 -2.679,0.341 -3.958,0.506 -0.019,0.003 -0.04,0.006 -0.06,0.008 -0.997,0.13 -1.961,0.257 -2.907,0.382 -0.21,0.028 -0.426,0.057 -0.633,0.084 -1.026,0.137 -2.013,0.27 -2.975,0.399 -1.501,0.205 -2.947,0.404 -4.285,0.592 -1.149,0.16 -2.23,0.314 -3.255,0.461 -2.275,0.327 -4.214,0.614 -5.829,0.859 -0.627,0.094 -1.201,0.181 -1.723,0.261 -2.261,0.349 -3.543,0.559 -3.629,0.573 l -0.969,0.161 -0.851,0.141 -1.183,0.196 6.091,-14.156 4.256,-0.353 2.88,-0.238 0.103,-0.009 6.566,-0.543 3.916,-0.325 c 1.231,-0.09 2.468,-0.181 3.862,-0.278 0.238,-0.016 0.461,-0.032 0.704,-0.049 0.423,-0.029 0.787,-0.057 1.223,-0.086 1.4,-0.094 2.936,-0.192 4.474,-0.289 0.316,-0.019 0.604,-0.039 0.924,-0.059 l 31.376,-1.498 c 20.172,-0.685 44.222,-0.96 69.252,-0.071 l -0.004,-0.023 c 0.927,0.034 1.779,0.081 2.694,0.117 1.954,0.075 3.909,0.162 5.873,0.253 2.983,0.136 5.894,0.282 8.742,0.442 0.423,0.024 0.845,0.048 1.269,0.073 47.587,2.733 76.136,8.468 85.2,10.531 0.022,0.085 0.037,0.163 0.059,0.247 C 48.068,1.766 19.342,0.306 0,0" /></g><g
           style="fill:#f2efeb;fill-opacity:1"
           transform="translate(278.0176,373.5609)"
           id="g32"><path
             id="path34"
             style="fill:#f2efeb;fill-opacity:1;fill-rule:nonzero;stroke:none"
             d="m 0,0 c -8.084,1.336 -15.649,2.661 -22.451,3.911 -0.047,0.009 -0.097,0.018 -0.143,0.027 -2.153,0.396 -4.208,0.78 -6.21,1.159 -0.047,0.009 -0.095,0.018 -0.142,0.027 -0.114,0.022 -0.228,0.043 -0.342,0.065 -1.223,0.232 -2.416,0.459 -3.578,0.684 -1.179,0.227 -2.33,0.45 -3.444,0.668 -0.948,0.185 -1.895,0.37 -2.793,0.549 -0.207,0.041 -0.393,0.079 -0.596,0.118 -2.565,0.511 -4.909,0.986 -7.038,1.424 -1.64,0.337 -3.168,0.654 -4.53,0.941 -0.82,0.173 -6.667,1.469 -10.268,2.269 -1.189,0.264 -2.234,-0.773 -1.802,-1.78 l 4.874,-11.328 20.316,-3.374 c 1.422,-0.2 2.905,-0.407 4.571,-0.634 0.461,-0.063 0.934,-0.125 1.409,-0.189 0.188,-0.025 0.401,-0.053 0.592,-0.079 1.237,-0.165 2.511,-0.334 3.848,-0.508 0.829,-0.108 1.684,-0.216 2.55,-0.327 0.007,0.02 0.032,0.017 0.039,-0.005 1.308,-0.168 2.655,-0.338 4.044,-0.51 l 2.665,-0.358 -0.008,0.037 c 24.087,-2.933 58.81,-6.381 95.482,-7.52 l 0.003,-0.022 c 1.562,-0.051 3.009,-0.073 4.537,-0.114 1.169,-0.03 2.332,-0.064 3.503,-0.089 66.908,-1.572 99.62,5.406 99.62,5.406 -36.504,-5.054 -81.812,-2.49 -100.096,-1.106 -2.722,0.221 -5.441,0.441 -8.226,0.693 -0.006,0 -0.011,10e-4 -0.017,0.002 l 0.018,-0.003 c -3.742,0.339 -7.455,0.72 -11.16,1.104 -0.824,0.086 -1.66,0.158 -2.48,0.246 -3.037,0.324 -6.025,0.676 -9.022,1.025 -1.491,0.174 -3.007,0.334 -4.488,0.513 -3.065,0.37 -6.063,0.762 -9.071,1.152 -1.344,0.174 -2.719,0.339 -4.05,0.517 -3.292,0.439 -6.5,0.895 -9.703,1.351 -0.968,0.138 -1.969,0.271 -2.929,0.411 -3.469,0.503 -6.838,1.015 -10.176,1.529 -0.628,0.097 -1.283,0.191 -1.907,0.288 C 7.746,-1.261 4.206,-0.691 0.739,-0.12 0.498,-0.08 0.242,-0.04 0,0" /></g><g
           style="fill:#f2efeb;fill-opacity:1"
           transform="translate(249.2822,458.0847)"
           id="g36"><path
             id="path38"
             style="fill:#f2efeb;fill-opacity:1;fill-rule:nonzero;stroke:none"
             d="m 0,0 v 0 c -4.946,12.007 -14.81,25.639 -32.612,39.15 l -3.274,1.648 C -15.72,21.889 -3.91,3.758 2.165,-11.694 1.825,-8.01 1.123,-4.115 0,0" /></g><g
           style="fill:#f2efeb;fill-opacity:1"
           transform="translate(196.9094,506.0383)"
           id="g40"><path
             id="path42"
             style="fill:#f2efeb;fill-opacity:1;fill-rule:nonzero;stroke:none"
             d="m 0,0 -0.8,0.316 c 30.19,-30.917 45.74,-58.122 53.383,-80.013 0.203,0.648 0.396,1.304 0.574,1.971 C 48.039,-45.851 21.756,-18.057 0,0" /></g><g
           style="fill:#f2efeb;fill-opacity:1"
           transform="translate(181.548,512.12)"
           id="g44"><path
             id="path46"
             style="fill:#f2efeb;fill-opacity:1;fill-rule:nonzero;stroke:none"
             d="m 0,0 -0.244,0.097 c 30.603,-35.521 51.038,-68.723 62.901,-97.21 0.542,0.852 1.062,1.727 1.559,2.628 C 54.246,-61.413 28.379,-27.386 0,0" /></g><g
           style="fill:#f2efeb;fill-opacity:1"
           transform="translate(168.8497,517.147)"
           id="g48"><path
             id="path50"
             style="fill:#f2efeb;fill-opacity:1;fill-rule:nonzero;stroke:none"
             d="m 0,0 -0.377,0.149 c 32.534,-42.583 54.751,-79.864 69.069,-110.719 0.78,0.81 1.545,1.651 2.291,2.524 C 59.631,-78.817 37.991,-42.193 0,0" /></g><g
           style="fill:#f2efeb;fill-opacity:1"
           transform="translate(157.2376,521.7445)"
           id="g52"><path
             id="path54"
             style="fill:#f2efeb;fill-opacity:1;fill-rule:nonzero;stroke:none"
             d="m 0,0 -0.536,0.212 c 31.297,-46.108 55.569,-87.502 73.01,-122.252 0.965,0.721 1.93,1.485 2.89,2.286 C 60.427,-86.994 36.307,-46.478 0,0" /></g><g
           style="fill:#f2efeb;fill-opacity:1"
           transform="translate(146.4056,526.0328)"
           id="g56"><path
             id="path58"
             style="fill:#f2efeb;fill-opacity:1;fill-rule:nonzero;stroke:none"
             d="m 0,0 -0.821,0.325 c 29.996,-49.283 55.55,-94.176 75.464,-132.227 1.115,0.617 2.269,1.291 3.446,2.022 C 60.32,-94.265 34.736,-50.536 0,0" /></g><g
           style="fill:#f2efeb;fill-opacity:1"
           transform="translate(215.4706,391.323)"
           id="g60"><path
             id="path62"
             style="fill:#f2efeb;fill-opacity:1;fill-rule:nonzero;stroke:none"
             d="m 0,0 c -19.273,36.927 -45.502,83.003 -79.761,138.944 l -0.817,0.324 C -49.297,82.376 -23.965,35.918 -3.915,-1.655 -2.833,-1.235 -1.506,-0.686 0,0" /></g><g
           style="fill:#f2efeb;fill-opacity:1"
           transform="translate(222.8969,346.6681)"
           id="g64"><path
             id="path66"
             style="fill:#f2efeb;fill-opacity:1;fill-rule:nonzero;stroke:none"
             d="m 0,0 c 1.319,-2.429 2.601,-4.788 3.879,-7.138 l -18.635,43.319 c -24.692,46.442 -54.635,100.141 -83.015,151.608 l -0.63,0.25 C -60.319,111.938 -26.295,48.437 -0.443,0.816 -0.295,0.543 -0.147,0.271 0,0" /></g><g
           style="fill:#f2efeb;fill-opacity:1"
           transform="translate(234.209,305.7336)"
           id="g68"><path
             id="path70"
             style="fill:#f2efeb;fill-opacity:1;fill-rule:nonzero;stroke:none"
             d="m 0,0 c 3.485,-6.063 6.812,-11.799 10.001,-17.263 0.572,-0.98 1.145,-1.965 1.708,-2.926 5.526,-9.447 10.554,-17.936 15.04,-25.476 l -6.848,15.921 c -1.699,3.185 -3.451,6.455 -5.313,9.907 -0.625,1.162 -1.283,2.377 -1.926,3.566 -2.822,5.221 -5.8,10.707 -8.92,16.439 -0.394,0.725 -0.781,1.436 -1.18,2.168 -1.796,3.299 -3.621,6.65 -5.498,10.096 -1.449,2.659 -2.961,5.434 -4.484,8.231 -0.05,0.092 -0.097,0.179 -0.149,0.271 -27.36,50.24 -67.353,122.796 -111.851,211.882 l -0.495,0.196 C -74.432,133.761 -31.903,55.574 -0.652,1.138 -0.437,0.763 -0.213,0.373 0,0" /></g><g
           style="fill:#f2efeb;fill-opacity:1"
           transform="translate(260.9097,247.9547)"
           id="g72"><path
             id="path74"
             style="fill:#f2efeb;fill-opacity:1;fill-rule:nonzero;stroke:none"
             d="m 0,0 c -6.007,10.072 -13.341,22.374 -21.746,36.763 -0.298,0.511 -0.595,1.021 -0.897,1.537 -32.416,55.571 -81.729,142.565 -133.618,256.309 l -0.398,0.158 c 47.611,-112.849 95.066,-199.155 130.617,-257.733 0.149,-0.246 0.301,-0.498 0.448,-0.743 C -7.446,6.426 7.545,-16.158 17.848,-31.378 l -0.853,2.303 C 13.349,-22.387 7.155,-11.998 0,0" /></g><g
           style="fill:#f2efeb;fill-opacity:1"
           transform="translate(394.1008,268.6927)"
           id="g76"><path
             id="path78"
             style="fill:#f2efeb;fill-opacity:1;fill-rule:nonzero;stroke:none"
             d="m 0,0 0.033,0.017 c -5.026,-3.164 -10.007,-6.223 -14.934,-9.21 -0.602,-0.365 -1.209,-0.739 -1.808,-1.101 -2.03,-1.224 -4.031,-2.416 -6.033,-3.607 -0.759,-0.451 -1.526,-0.912 -2.281,-1.358 -1.973,-1.169 -3.916,-2.305 -5.858,-3.438 -0.735,-0.43 -1.476,-0.867 -2.206,-1.29 -1.961,-1.139 -3.888,-2.248 -5.808,-3.349 -0.682,-0.391 -1.368,-0.786 -2.044,-1.172 -1.925,-1.1 -3.814,-2.169 -5.691,-3.228 -0.63,-0.356 -1.262,-0.713 -1.887,-1.064 -1.921,-1.078 -3.8,-2.127 -5.661,-3.16 -0.522,-0.289 -1.041,-0.578 -1.558,-0.864 -1.909,-1.056 -3.777,-2.082 -5.616,-3.087 -0.431,-0.236 -0.859,-0.47 -1.286,-0.703 -1.893,-1.032 -3.742,-2.034 -5.549,-3.008 -0.303,-0.163 -0.6,-0.323 -0.901,-0.484 -1.897,-1.02 -3.743,-2.008 -5.535,-2.96 -0.152,-0.081 -0.299,-0.158 -0.45,-0.238 -13.953,-7.407 -24.574,-12.714 -29.72,-15.241 l 5.791,-13.461 c 9.739,5.893 33.259,20.706 61.677,40.13 C -19.64,-19.43 -4.467,-6.835 8.425,5.442 5.534,3.534 2.721,1.713 0.029,0.019 0.019,0.013 0.01,0.007 0,0" /></g><g
           style="fill:#f2efeb;fill-opacity:1"
           transform="translate(389.7344,279.1818)"
           id="g80"><path
             id="path82"
             style="fill:#f2efeb;fill-opacity:1;fill-rule:nonzero;stroke:none"
             d="m 0,0 0.015,0.007 c -0.649,-0.345 -1.291,-0.675 -1.94,-1.017 -2.232,-1.179 -4.459,-2.35 -6.674,-3.498 -1.178,-0.61 -2.341,-1.201 -3.514,-1.802 -1.73,-0.889 -3.457,-1.773 -5.173,-2.641 -1.226,-0.619 -2.437,-1.225 -3.654,-1.834 -1.648,-0.824 -3.288,-1.643 -4.918,-2.448 -1.193,-0.59 -2.376,-1.171 -3.559,-1.749 -1.657,-0.812 -3.297,-1.609 -4.929,-2.398 -1.108,-0.534 -2.211,-1.068 -3.306,-1.593 -1.741,-0.833 -3.454,-1.647 -5.162,-2.454 -0.935,-0.442 -1.879,-0.892 -2.803,-1.325 -2.103,-0.988 -4.165,-1.947 -6.206,-2.891 -0.489,-0.226 -0.994,-0.463 -1.48,-0.687 -2.553,-1.176 -5.052,-2.317 -7.492,-3.42 -0.545,-0.247 -1.061,-0.476 -1.6,-0.718 -1.868,-0.842 -3.711,-1.669 -5.501,-2.465 -0.794,-0.353 -1.551,-0.685 -2.329,-1.029 -1.489,-0.658 -2.958,-1.305 -4.386,-1.93 -0.84,-0.367 -1.653,-0.72 -2.472,-1.076 -1.279,-0.555 -2.53,-1.097 -3.752,-1.623 -0.854,-0.367 -1.688,-0.726 -2.513,-1.078 -1.086,-0.464 -2.13,-0.908 -3.164,-1.347 -0.861,-0.364 -1.718,-0.729 -2.541,-1.075 -0.859,-0.361 -1.665,-0.698 -2.483,-1.039 -0.887,-0.372 -1.788,-0.749 -2.624,-1.097 -0.402,-0.167 -0.756,-0.312 -1.146,-0.473 -5.959,-2.465 -10.56,-4.304 -13.277,-5.374 l 5.887,-13.685 3.702,1.842 -0.005,0.02 c 19.91,10.14 77.556,41.083 130.457,76.102 2.339,2.623 4.571,5.218 6.696,7.78 C 24.859,13.913 11.117,5.907 0.015,0.009 0.01,0.006 0.005,0.003 0,0" /></g><g
           style="fill:#f2efeb;fill-opacity:1"
           transform="translate(385.3352,289.6724)"
           id="g84"><path
             id="path86"
             style="fill:#f2efeb;fill-opacity:1;fill-rule:nonzero;stroke:none"
             d="m 0,0 0.017,0.005 c -0.614,-0.269 -1.221,-0.524 -1.832,-0.79 -2.218,-0.966 -4.432,-1.925 -6.633,-2.863 -1.189,-0.507 -2.365,-0.997 -3.548,-1.495 -1.669,-0.702 -3.332,-1.402 -4.987,-2.087 -1.251,-0.518 -2.49,-1.025 -3.733,-1.533 -1.583,-0.648 -3.158,-1.289 -4.726,-1.922 -1.222,-0.492 -2.437,-0.98 -3.648,-1.463 -1.573,-0.627 -3.127,-1.24 -4.679,-1.85 -1.172,-0.461 -2.344,-0.923 -3.503,-1.373 -1.648,-0.641 -3.268,-1.262 -4.887,-1.882 -1.006,-0.385 -2.025,-0.78 -3.019,-1.158 -2.486,-0.944 -4.938,-1.864 -7.343,-2.757 -1.028,-0.383 -2.017,-0.743 -3.03,-1.115 -1.455,-0.536 -2.912,-1.072 -4.332,-1.588 -1.186,-0.431 -2.335,-0.843 -3.496,-1.261 -1.174,-0.423 -2.344,-0.843 -3.491,-1.252 -1.236,-0.44 -2.441,-0.866 -3.641,-1.289 -0.975,-0.343 -1.935,-0.68 -2.885,-1.011 -1.287,-0.45 -2.553,-0.891 -3.794,-1.319 -0.694,-0.24 -1.365,-0.469 -2.045,-0.702 -1.412,-0.484 -2.811,-0.964 -4.157,-1.42 -0.088,-0.03 -0.17,-0.057 -0.258,-0.087 -12.145,-4.11 -21.514,-7.049 -26.635,-8.613 l -2.109,-0.656 6.144,-14.282 1.394,1.052 6.05,2.449 -0.008,0.038 c 24.984,10.48 93.271,41.151 150.138,74.89 1.063,1.432 2.091,2.849 3.085,4.252 C 36.265,17.28 15.364,6.738 0.016,0.007 0.011,0.005 0.006,0.003 0,0" /></g><g
           style="fill:#f2efeb;fill-opacity:1"
           transform="translate(380.9196,300.1763)"
           id="g88"><path
             id="path90"
             style="fill:#f2efeb;fill-opacity:1;fill-rule:nonzero;stroke:none"
             d="m 0,0 0.017,0.003 c -0.754,-0.264 -1.501,-0.514 -2.253,-0.775 -1.965,-0.683 -3.928,-1.363 -5.881,-2.025 -1.262,-0.428 -2.511,-0.84 -3.766,-1.26 -1.494,-0.499 -2.987,-0.999 -4.471,-1.485 -1.312,-0.431 -2.612,-0.851 -3.916,-1.272 -1.397,-0.451 -2.79,-0.899 -4.176,-1.34 -1.331,-0.423 -2.653,-0.84 -3.973,-1.253 -1.337,-0.418 -2.665,-0.831 -3.988,-1.239 -1.32,-0.406 -2.634,-0.811 -3.937,-1.207 -1.271,-0.386 -2.524,-0.761 -3.779,-1.137 -1.326,-0.397 -2.655,-0.798 -3.963,-1.183 -1.157,-0.342 -2.289,-0.669 -3.431,-1.001 -3.004,-0.876 -5.954,-1.722 -8.839,-2.536 -0.6,-0.169 -1.219,-0.347 -1.814,-0.514 -1.501,-0.42 -2.952,-0.819 -4.414,-1.222 -0.821,-0.226 -1.652,-0.457 -2.461,-0.678 -1.475,-0.403 -2.91,-0.789 -4.344,-1.174 -0.714,-0.192 -1.432,-0.385 -2.137,-0.573 -1.489,-0.398 -2.942,-0.781 -4.38,-1.157 -0.554,-0.145 -1.102,-0.288 -1.648,-0.43 -1.544,-0.402 -3.054,-0.793 -4.528,-1.17 -0.265,-0.068 -0.52,-0.132 -0.781,-0.2 -9.422,-2.401 -17.401,-4.304 -23.32,-5.664 v -10e-4 l -0.084,-0.019 c -1.384,-0.317 -2.672,-0.611 -3.827,-0.869 -0.002,0.005 -0.004,0.011 -0.007,0.017 l -6.014,-1.338 v -0.001 c 0.279,-0.752 0.524,-1.455 0.77,-2.158 l 5.142,-11.952 3.671,1.2 8.026,2.54 -0.011,0.048 c 29.122,9.661 103.893,36.675 162.527,67.089 0.616,0.953 1.226,1.903 1.809,2.84 C 44.952,17.54 18.482,6.481 0.016,0.005 0.011,0.003 0.006,0.002 0,0" /></g><g
           style="fill:#f2efeb;fill-opacity:1"
           transform="translate(281.6994,290.6057)"
           id="g92"><path
             id="path94"
             style="fill:#f2efeb;fill-opacity:1;fill-rule:nonzero;stroke:none"
             d="m 0,0 v -0.003 c -10.162,-1.834 -20.224,-2.966 -25.165,-3.465 0.041,-0.088 0.084,-0.183 0.124,-0.271 2.04,-4.507 3.836,-8.635 5.371,-12.363 0.038,-0.092 0.079,-0.189 0.116,-0.281 0.181,-0.439 0.343,-0.849 0.518,-1.28 l 6.17,1.185 9.558,2.221 -0.011,0.05 c 32.626,8.038 112.142,29.943 171.815,56.467 0.386,0.674 0.765,1.343 1.132,2.005 C 147.068,35.979 115.91,25.74 94.808,20.096 58.042,10.263 22.865,3.732 0,0" /></g><g
           style="fill:#f2efeb;fill-opacity:1"
           transform="translate(372.0598,321.24)"
           id="g96"><path
             id="path98"
             style="fill:#f2efeb;fill-opacity:1;fill-rule:nonzero;stroke:none"
             d="m 0,0 0.021,0.001 c -1.234,-0.233 -2.459,-0.449 -3.691,-0.674 -1.312,-0.241 -2.627,-0.487 -3.935,-0.72 -1.38,-0.247 -2.749,-0.48 -4.123,-0.718 -1.229,-0.213 -2.458,-0.428 -3.68,-0.634 -1.358,-0.229 -2.705,-0.448 -4.054,-0.67 -1.215,-0.198 -2.428,-0.397 -3.633,-0.589 -1.358,-0.217 -2.704,-0.427 -4.051,-0.636 -1.174,-0.181 -2.343,-0.361 -3.508,-0.537 -1.345,-0.202 -2.681,-0.402 -4.012,-0.597 -1.138,-0.166 -2.265,-0.329 -3.393,-0.489 -1.332,-0.191 -2.661,-0.38 -3.977,-0.563 -1.095,-0.152 -2.174,-0.297 -3.258,-0.443 -1.314,-0.178 -2.631,-0.359 -3.927,-0.529 -0.994,-0.13 -1.963,-0.252 -2.944,-0.378 -5.172,-0.664 -10.173,-1.268 -14.976,-1.815 -0.592,-0.066 -1.196,-0.138 -1.78,-0.203 -1.45,-0.163 -2.858,-0.316 -4.267,-0.468 -0.66,-0.071 -1.326,-0.144 -1.977,-0.214 -1.38,-0.146 -2.725,-0.285 -4.063,-0.423 -0.609,-0.062 -1.219,-0.124 -1.821,-0.185 -1.381,-0.139 -2.732,-0.273 -4.064,-0.401 -0.46,-0.045 -0.913,-0.089 -1.367,-0.133 -1.418,-0.135 -2.807,-0.266 -4.163,-0.39 -0.251,-0.024 -0.494,-0.045 -0.744,-0.068 -6.684,-0.608 -12.602,-1.086 -17.454,-1.443 l -15.345,-0.855 0.049,-0.116 3.863,-8.981 c 0.715,-1.51 1.42,-3.005 2.1,-4.462 4.98,0.434 15.109,1.416 23.977,2.883 37.155,6.396 118.004,23.025 176.536,44.887 0.225,0.448 0.435,0.887 0.65,1.33 C 59.183,13.644 23.434,4.416 0.017,0.003 0.01,0.002 0.005,0.001 0,0" /></g><g
           style="fill:#f2efeb;fill-opacity:1"
           transform="translate(101.4091,93.915)"
           id="g100"><path
             id="path102"
             style="fill:#f2efeb;fill-opacity:1;fill-rule:nonzero;stroke:none"
             d="m 0,0 c 0,0 -2.633,0.067 -4.634,-0.502 -4.372,-1.245 -7.667,-3.369 -7.667,-3.369 l -2.117,-1.511 C -16.907,-2.036 -21.045,0 -26.239,0 c -0.032,0 -2.434,-0.016 -4.578,-0.588 -3.535,-0.941 -6.375,-2.622 -7.389,-3.288 v 0.011 c 0,0 -5.514,-3.949 -11.2,-5.928 v -30.699 h 11.371 v 22.408 c 0,6.341 3.334,9.438 8.546,9.438 4.786,0 7.181,-2.305 7.181,-6.917 v -24.929 h 11.367 v 22.336 c 0,6.413 3.25,9.51 8.633,9.51 4.703,0 7.098,-2.305 7.098,-6.917 v -24.929 h 11.367 v 26.803 C 16.157,-5.259 9.831,0 0,0" /></g><g
           style="fill:#f2efeb;fill-opacity:1"
           transform="translate(140.5446,77.4168)"
           id="g104"><path
             id="path106"
             style="fill:#f2efeb;fill-opacity:1;fill-rule:nonzero;stroke:none"
             d="M 0,0 C 0.943,5.475 5.642,8.213 11.371,8.213 17.267,8.213 21.373,5.114 21.457,0 Z m 32.569,-3.099 c 0,6.268 -1.965,11.168 -5.984,14.555 -4.018,3.385 -9.059,5.042 -15.131,5.042 -6.409,0 -11.792,-1.801 -16.153,-5.474 -4.36,-3.676 -6.58,-8.718 -6.58,-15.276 0,-6.629 2.22,-11.743 6.663,-15.274 4.444,-3.53 9.748,-5.333 15.987,-5.333 5.212,0 9.831,1.226 13.846,3.748 4.017,2.45 6.413,5.908 7.269,10.302 H 22.141 c -1.11,-3.818 -5.216,-5.763 -10.257,-5.763 -6.839,0 -11.884,3.458 -12.139,9.583 h 32.824 z" /></g><g
           style="fill:#f2efeb;fill-opacity:1"
           transform="translate(182.2546,84.8368)"
           id="g108"><path
             id="path110"
             style="fill:#f2efeb;fill-opacity:1;fill-rule:nonzero;stroke:none"
             d="M 0,0 H 24.874 L -1.281,-23.056 v -8.358 h 40.689 v 8.358 H 13.249 L 39.492,0 V 8.359 H 0 Z" /></g><g
           style="fill:#f2efeb;fill-opacity:1"
           transform="translate(233.8793,84.8368)"
           id="g112"><path
             id="path114"
             style="fill:#f2efeb;fill-opacity:1;fill-rule:nonzero;stroke:none"
             d="M 0,0 H 24.874 L -1.281,-23.056 v -8.358 h 40.689 v 8.358 H 13.249 L 39.492,0 V 8.359 H 0 Z" /></g><g
           style="fill:#f2efeb;fill-opacity:1"
           transform="translate(304.3943,61.4941)"
           id="g116"><path
             id="path118"
             style="fill:#f2efeb;fill-opacity:1;fill-rule:nonzero;stroke:none"
             d="m 0,0 v 0 c -1.688,0 -3.253,0.261 -4.652,0.767 -1.398,0.505 -2.63,1.255 -3.651,2.232 -1.021,0.977 -1.83,2.181 -2.385,3.597 -0.555,1.415 -0.854,3.04 -0.854,4.86 0,7.708 4.448,12.031 11.283,12.031 6.585,0 11.542,-4.179 11.542,-11.456 C 11.283,4.323 6.839,0 0,0 m 16.495,26.874 c -4.356,3.674 -9.914,5.547 -16.666,5.547 -6.751,0 -12.222,-1.873 -16.499,-5.547 -4.357,-3.748 -6.493,-8.79 -6.493,-15.132 0,-6.339 2.136,-11.383 6.493,-15.057 4.277,-3.746 9.748,-5.621 16.499,-5.621 6.752,0 12.31,1.875 16.666,5.621 4.273,3.674 6.414,8.718 6.414,15.057 0,6.342 -2.141,11.384 -6.414,15.132" /></g><g
           style="fill:#f2efeb;fill-opacity:1"
           transform="translate(345.3283,105.5872)"
           id="g120"><path
             id="path122"
             style="fill:#f2efeb;fill-opacity:1;fill-rule:nonzero;stroke:none"
             d="m 0,0 c -2.395,-1.801 -3.589,-5.259 -3.589,-10.23 v -2.161 h -7.01 v -8.646 h 7.01 V -52.164 H 7.778 v 31.127 h 8.717 v 8.646 H 7.778 v 2.593 c 0,2.665 1.027,4.035 4.786,4.035 h 5.129 V 2.738 H 10.854 C 5.984,2.738 2.391,1.803 0,0" /></g><g
           style="fill:#f2efeb;fill-opacity:1"
           transform="translate(401.4291,66.3311)"
           id="g124"><path
             id="path126"
             style="fill:#f2efeb;fill-opacity:1;fill-rule:nonzero;stroke:none"
             d="m 0,0 c -0.762,-1.259 -1.753,-2.285 -2.941,-3.063 -1.783,-1.166 -4.011,-1.774 -6.576,-1.774 -6.751,0 -11.542,4.179 -11.542,11.456 0,5.781 2.502,9.658 6.637,11.235 1.378,0.525 2.938,0.796 4.646,0.796 1.647,0 3.191,-0.262 4.582,-0.767 2.086,-0.758 3.826,-2.066 5.045,-3.866 C 1.069,12.216 1.767,9.923 1.767,7.194 1.767,4.303 1.142,1.889 0,0 m 6.979,22.037 c -4.357,3.674 -9.915,5.547 -16.667,5.547 -6.752,0 -12.222,-1.873 -16.499,-5.547 -4.356,-3.748 -6.493,-8.79 -6.493,-15.131 0,-6.34 2.137,-11.384 6.493,-15.058 4.277,-3.746 9.747,-5.621 16.499,-5.621 6.752,0 12.31,1.875 16.667,5.621 4.272,3.674 6.413,8.718 6.413,15.058 0,6.341 -2.141,11.383 -6.413,15.131" /></g><g
           style="fill:#f2efeb;fill-opacity:1"
           transform="translate(481.4832,65.9611)"
           id="g128"><path
             id="path130"
             style="fill:#f2efeb;fill-opacity:1;fill-rule:nonzero;stroke:none"
             d="m 0,0 v 18.589 h 9.401 v 8.646 H 0 v 8.964 l -11.371,-0.03 v -8.934 h -8.634 v -8.646 h 8.634 V 0.431 c 0,-4.97 1.198,-8.43 3.593,-10.23 2.391,-1.801 5.984,-2.739 10.853,-2.739 h 7.436 v 8.502 H 4.786 C 1.027,-4.036 0,-2.666 0,0" /></g><g
           style="fill:#f2efeb;fill-opacity:1"
           transform="translate(513.2094,82.4214)"
           id="g132"><path
             id="path134"
             style="fill:#f2efeb;fill-opacity:1;fill-rule:nonzero;stroke:none"
             d="M 0,0 C 0.844,0.856 1.86,1.54 3.003,2.053 1.86,1.54 0.844,0.856 0,0" /></g><g
           style="fill:#f2efeb;fill-opacity:1"
           transform="translate(522.0795,85.6299)"
           id="g136"><path
             id="path138"
             style="fill:#f2efeb;fill-opacity:1;fill-rule:nonzero;stroke:none"
             d="M 0,0 V 0 C 3.685,0 6.67,-1.21 8.412,-3.367 6.67,-1.21 3.685,0 0,0" /></g><g
           style="fill:#f2efeb;fill-opacity:1"
           transform="translate(510.7082,77.4168)"
           id="g140"><path
             id="path142"
             style="fill:#f2efeb;fill-opacity:1;fill-rule:nonzero;stroke:none"
             d="m 0,0 c 0.353,2.053 1.235,3.721 2.501,5.005 0.845,0.855 1.86,1.54 3.003,2.053 1.143,0.513 2.415,0.856 3.772,1.027 0.679,0.085 1.379,0.128 2.095,0.128 3.685,0 6.671,-1.21 8.412,-3.367 C 20.828,3.552 21.425,1.918 21.457,0 Z m 32.569,-3.099 c 0,6.268 -1.966,11.168 -5.984,14.555 -4.019,3.385 -9.059,5.042 -15.13,5.042 -6.41,0 -11.793,-1.801 -16.153,-5.474 -4.361,-3.676 -6.581,-8.718 -6.581,-15.276 0,-6.629 2.22,-11.743 6.664,-15.274 4.448,-3.53 9.748,-5.333 15.986,-5.333 5.212,0 9.831,1.226 13.845,3.748 4.019,2.45 6.414,5.908 7.27,10.302 H 22.141 c -1.11,-3.818 -5.216,-5.763 -10.257,-5.763 -6.839,0 -11.884,3.458 -12.138,9.583 h 32.823 z" /></g><g
           style="fill:#f2efeb;fill-opacity:1"
           transform="translate(522.0795,85.6299)"
           id="g144"><path
             id="path146"
             style="fill:#f2efeb;fill-opacity:1;fill-rule:nonzero;stroke:none"
             d="M 0,0 C -0.717,0 -1.417,-0.043 -2.095,-0.128 -1.417,-0.043 -0.717,0 0,0" /></g><g
           style="fill:#f2efeb;fill-opacity:1"
           transform="translate(446.7782,93.2782)"
           id="g148"><path
             id="path150"
             style="fill:#f2efeb;fill-opacity:1;fill-rule:nonzero;stroke:none"
             d="m 0,0 c -0.163,-0.03 -0.332,-0.052 -0.491,-0.086 -5.362,-1.036 -7.761,-3.336 -8.054,-3.639 v 3.643 H -19.828 V -39.855 H -8.457 V -20.4 c 0,7.636 4.102,11.456 12.31,11.456 H 6.844 V 0.35 C 4.177,0.502 1.922,0.331 0,0" /></g></g></g></g></svg>