<?xml version="1.0" encoding="UTF-8" standalone="no"?>
<svg
   xmlns:dc="http://purl.org/dc/elements/1.1/"
   xmlns:cc="http://creativecommons.org/ns#"
   xmlns:rdf="http://www.w3.org/1999/02/22-rdf-syntax-ns#"
   xmlns:svg="http://www.w3.org/2000/svg"
   xmlns="http://www.w3.org/2000/svg"
   xmlns:sodipodi="http://sodipodi.sourceforge.net/DTD/sodipodi-0.dtd"
   xmlns:inkscape="http://www.inkscape.org/namespaces/inkscape"
   width="150"
   height="180"
   viewBox="0 0 150 180"
   version="1.1"
   id="svg49"
   sodipodi:docname="smartphone.svg"
   inkscape:version="1.0 (6e3e5246a0, 2020-05-07)">
  <metadata
     id="metadata53">
    <rdf:RDF>
      <cc:Work
         rdf:about="">
        <dc:format>image/svg+xml</dc:format>
        <dc:type
           rdf:resource="http://purl.org/dc/dcmitype/StillImage" />
      </cc:Work>
    </rdf:RDF>
  </metadata>
  <sodipodi:namedview
     inkscape:document-rotation="0"
     pagecolor="#ffffff"
     bordercolor="#666666"
     borderopacity="1"
     objecttolerance="10"
     gridtolerance="10"
     guidetolerance="10"
     inkscape:pageopacity="0"
     inkscape:pageshadow="2"
     inkscape:window-width="1920"
     inkscape:window-height="1052"
     id="namedview51"
     showgrid="false"
     inkscape:zoom="2.4388889"
     inkscape:cx="21.740792"
     inkscape:cy="102.41999"
     inkscape:window-x="0"
     inkscape:window-y="0"
     inkscape:window-maximized="1"
     inkscape:current-layer="icon_1" />
  <defs
     id="defs5">
    <clipPath
       id="clip-icon_1">
      <rect
         width="150"
         height="180"
         id="rect2" />
    </clipPath>
  </defs>
  <g
     id="icon_1"
     data-name="icon – 1"
     clip-path="url(#clip-icon_1)">
    <rect
       style="fill:none"
       width="150"
       height="180"
       fill="#fff"
       id="rect7" />
    <g
       id="Group_2235"
       data-name="Group 2235"
       transform="translate(-7610.9948,-9074.253)"
       opacity="0.4">
      <g
         id="Group_2236"
         data-name="Group 2236"
         transform="translate(7613.691,9069.914)">
        <g
           id="Group_2235-2"
           data-name="Group 2235" />
      </g>
      <g
         id="Group_2238"
         data-name="Group 2238"
         transform="translate(7709.938,9079.822)">
        <g
           id="Group_2237"
           data-name="Group 2237" />
      </g>
      <path
         id="Path_3588"
         data-name="Path 3588"
         d="m 7665.5,9180.474 v 0 a 6.43,6.43 0 0 0 0.051,9.025 l 45.058,45.665 a 6.375,6.375 0 0 0 9.025,-0.052 v 0 a 6.424,6.424 0 0 0 -0.052,-9.022 l -45.059,-45.668 a 6.371,6.371 0 0 0 -9.023,0.052 z"
         transform="translate(-18.531,-40.288)"
         fill="#eae8e5"
         fill-rule="evenodd" />
      <path
         id="Path_3589"
         data-name="Path 3589"
         d="m 7755.252,9273.657 -34.621,6.763 -5.313,-27.2 -24.348,-35.151 51.459,-10.052 z"
         transform="translate(-28.653,-51.204)"
         fill="#eae8e5"
         fill-rule="evenodd" />
      <path
         id="Path_3590"
         data-name="Path 3590"
         d="m 7666.467,9213.081 v 0 a 6.43,6.43 0 0 0 0.052,9.025 l 45.058,45.665 a 6.374,6.374 0 0 0 9.025,-0.052 v 0 a 6.428,6.428 0 0 0 -0.053,-9.024 l -45.059,-45.665 a 6.37,6.37 0 0 0 -9.023,0.051 z"
         transform="translate(-18.891,-52.377)"
         fill="#eae8e5"
         fill-rule="evenodd" />
      <path
         id="Path_3591"
         data-name="Path 3591"
         d="m 7658.764,9140.507 v 0 a 6.429,6.429 0 0 0 0.052,9.024 l 43.412,43.946 a 6.372,6.372 0 0 0 9.024,-0.052 v 0 a 6.425,6.425 0 0 0 -0.053,-9.024 l -43.411,-43.946 a 6.374,6.374 0 0 0 -9.024,0.052 z"
         transform="translate(-16.035,-25.47)"
         fill="#eae8e5"
         fill-rule="evenodd" />
      <g
         id="Group_2239"
         data-name="Group 2239"
         transform="translate(7654.686,9091.678)">
        <path
           id="Rectangle_2008"
           data-name="Rectangle 2008"
           d="M 17.662,0 H 36.126 A 17.661,17.661 0 0 1 53.787,17.661 V 79.548 A 17.661,17.661 0 0 1 36.126,97.209 H 17.662 A 17.662,17.662 0 0 1 0,79.548 V 17.662 A 17.662,17.662 0 0 1 17.662,0 Z"
           fill="#a5a093" />
        <path
           id="Rectangle_2009"
           data-name="Rectangle 2009"
           d="m 0.247,0 h 43.831 a 0.248,0.248 0 0 1 0.248,0.248 v 78.044 a 0.247,0.247 0 0 1 -0.247,0.247 H 0.247 A 0.247,0.247 0 0 1 0,78.292 V 0.247 A 0.247,0.247 0 0 1 0.247,0 Z"
           transform="translate(4.731,8.89)"
           fill="#eae8e5" />
        <path
           id="Rectangle_2010"
           data-name="Rectangle 2010"
           d="m 0.8,0 h 16.311 a 0.8,0.8 0 0 1 0.8,0.8 v 0 a 0.8,0.8 0 0 1 -0.8,0.8 H 0.8 A 0.8,0.8 0 0 1 0,0.8 v 0 A 0.8,0.8 0 0 1 0.8,0 Z"
           transform="translate(17.936,2.623)"
           fill="#dbd7d0" />
        <path
           id="Path_3592"
           data-name="Path 3592"
           d="m 7719.981,9246.663 a 2.717,2.717 0 1 0 2.716,2.717 2.718,2.718 0 0 0 -2.716,-2.717 z"
           transform="translate(-7693.086,-9157.211)"
           fill="#dbd7d0"
           fill-rule="evenodd" />
      </g>
      <path
         id="Path_3593"
         data-name="Path 3593"
         d="m 7659.744,9206.416 v 0 a 6.409,6.409 0 0 0 0.05,9.025 l 8.455,8.395 a 6.4,6.4 0 0 0 9.024,-0.051 v 0 a 6.4,6.4 0 0 0 -0.052,-9.024 l -8.453,-8.4 a 6.393,6.393 0 0 0 -9.024,0.055 z"
         transform="translate(-16.395,-49.91)"
         fill="#eae8e5"
         fill-rule="evenodd" />
      <path
         id="Path_3594"
         data-name="Path 3594"
         d="m 7657.827,9172.871 v 0 a 6.407,6.407 0 0 0 0.051,9.023 l 7.2,7.149 a 6.4,6.4 0 0 0 9.025,-0.051 v 0 a 6.4,6.4 0 0 0 -0.052,-9.023 l -7.2,-7.15 a 6.39,6.39 0 0 0 -9.024,0.052 z"
         transform="translate(-15.685,-37.472)"
         fill="#eae8e5"
         fill-rule="evenodd" />
      <path
         id="Path_3595"
         data-name="Path 3595"
         d="m 7771.371,9294.367 -43.747,8.545 1.957,17.136 a 93.026,93.026 0 0 0 44.342,-12.618 z"
         transform="translate(-42.243,-83.22)"
         fill="#9e998f"
         fill-rule="evenodd" />
      <path
         id="Path_3596"
         data-name="Path 3596"
         d="m 7772.165,9233.713 -4.424,0.865 -0.588,-5.568 -4.746,-44.692 c -0.8,-7.57 3.013,-10.607 7.582,-12.083 2.517,-0.812 3.116,-1.511 3.361,0.8 l 5.434,51.158 c 0.471,4.427 -2.506,8.717 -6.619,9.52 z"
         transform="translate(-55.1,-37.651)"
         fill="#eae8e5"
         fill-rule="evenodd" />
      <g
         id="Group_2240"
         data-name="Group 2240"
         transform="translate(7672.301,9130.44)">
        <path
           id="Path_3597"
           data-name="Path 3597"
           d="m 7714.468,9168.549 a 0.4,0.4 0 0 0 -0.428,0.06 l -3.42,2.936 h -3.385 v 0 a 0.4,0.4 0 0 0 -0.4,0.4 v 4.613 a 0.4,0.4 0 0 0 0.4,0.4 h 3.175 l 3.64,2.939 a 0.39,0.39 0 0 0 0.423,0.049 0.394,0.394 0 0 0 0.228,-0.359 v -10.677 a 0.4,0.4 0 0 0 -0.233,-0.361 z"
           transform="translate(-7706.836,-9166.997)"
           fill="#a5a093" />
        <path
           id="Path_3598"
           data-name="Path 3598"
           d="m 7721.746,9172.148 a 0.4,0.4 0 0 0 -0.065,0.563 4.707,4.707 0 0 1 0,5.705 0.40097662,0.40097662 0 0 0 0.627,0.5 c 2.617,-3.311 0.026,-6.663 0,-6.7 a 0.4,0.4 0 0 0 -0.562,-0.068 z"
           transform="translate(-7712.308,-9168.313)"
           fill="#a5a093" />
        <path
           id="Path_3599"
           data-name="Path 3599"
           d="m 7726.44,9169.849 a 0.4,0.4 0 0 0 -0.088,0.56 c 0.127,0.174 3.086,4.367 0,8.613 a 0.4,0.4 0 1 0 0.646,0.47 c 3.434,-4.723 0.035,-9.506 0,-9.555 a 0.4,0.4 0 0 0 -0.558,-0.088 z"
           transform="translate(-7714.043,-9167.465)"
           fill="#a5a093" />
        <path
           id="Path_3600"
           data-name="Path 3600"
           d="m 7730.659,9166.178 a 0.4,0.4 0 0 0 -0.094,0.557 c 0.048,0.067 4.649,6.694 0,13.236 a 0.40012498,0.40012498 0 0 0 0.652,0.464 c 4.974,-7 0.05,-14.091 0,-14.162 a 0.4,0.4 0 0 0 -0.558,-0.095 z"
           transform="translate(-7715.607,-9166.104)"
           fill="#a5a093" />
      </g>
    </g>
  </g>
</svg>
