<?xml version="1.0" encoding="UTF-8" standalone="no"?>
<svg
   xmlns:dc="http://purl.org/dc/elements/1.1/"
   xmlns:cc="http://creativecommons.org/ns#"
   xmlns:rdf="http://www.w3.org/1999/02/22-rdf-syntax-ns#"
   xmlns:svg="http://www.w3.org/2000/svg"
   xmlns="http://www.w3.org/2000/svg"
   xmlns:sodipodi="http://sodipodi.sourceforge.net/DTD/sodipodi-0.dtd"
   xmlns:inkscape="http://www.inkscape.org/namespaces/inkscape"
   inkscape:version="1.0 (6e3e5246a0, 2020-05-07)"
   sodipodi:docname="soundwave-light.svg"
   id="svg14"
   version="1.1"
   viewBox="0 0 25 25"
   height="25"
   width="25">
  <metadata
     id="metadata18">
    <rdf:RDF>
      <cc:Work
         rdf:about="">
        <dc:format>image/svg+xml</dc:format>
        <dc:type
           rdf:resource="http://purl.org/dc/dcmitype/StillImage" />
      </cc:Work>
    </rdf:RDF>
  </metadata>
  <sodipodi:namedview
     inkscape:current-layer="icon"
     inkscape:window-maximized="1"
     inkscape:window-y="0"
     inkscape:window-x="0"
     inkscape:cy="10.469501"
     inkscape:cx="12.332991"
     inkscape:zoom="12.416795"
     showgrid="false"
     id="namedview16"
     inkscape:window-height="1052"
     inkscape:window-width="1920"
     inkscape:pageshadow="2"
     inkscape:pageopacity="0"
     guidetolerance="10"
     gridtolerance="10"
     objecttolerance="10"
     borderopacity="1"
     bordercolor="#666666"
     pagecolor="#ffffff" />
  <defs
     id="defs5">
    <clipPath
       id="clip-icon">
      <rect
         id="rect2"
         height="25"
         width="25" />
    </clipPath>
  </defs>
  <g
     style="opacity:1"
     clip-path="url(#clip-icon)"
     id="icon">
    <rect
       style="fill:none"
       id="rect7"
       fill="#fff"
       height="25"
       width="25" />
    <g
       transform="translate(-2294.849,-2129.7891)"
       data-name="Group 2366"
       id="Group_2366">
      <path
         stroke-width="1"
         stroke="#a5a093"
         fill="#a5a093"
         transform="translate(0,-46.692)"
         d="m 2301.5,2184.137 a 0.567,0.567 0 0 0 -0.093,0.8 c 0.032,0.04 3.166,4.095 0,8.1 a 0.567,0.567 0 0 0 0.89,0.7 c 3.715,-4.7 0.038,-9.458 0,-9.506 a 0.568,0.568 0 0 0 -0.797,-0.094 z"
         data-name="Path 947"
         id="Path_947" />
      <path
         stroke-width="1"
         stroke="#a5a093"
         fill="#a5a093"
         transform="translate(-36.684,-28.74)"
         d="m 2342.385,2164.123 a 0.568,0.568 0 0 0 -0.127,0.792 c 0.181,0.25 4.383,6.2 0,12.229 a 0.567,0.567 0 0 0 0.917,0.667 c 4.874,-6.7 0.05,-13.495 0,-13.563 a 0.567,0.567 0 0 0 -0.79,-0.125 z"
         data-name="Path 948"
         id="Path_948" />
      <path
         stroke-width="1"
         stroke="#a5a093"
         fill="#a5a093"
         transform="translate(-69.73)"
         d="m 2379.2,2132.105 a 0.568,0.568 0 0 0 -0.134,0.791 c 0.067,0.094 6.6,9.5 0,18.789 a 0.567,0.567 0 0 0 0.134,0.791 0.561,0.561 0 0 0 0.328,0.1 0.567,0.567 0 0 0 0.463,-0.239 c 7.061,-9.937 0.072,-20 0,-20.1 a 0.567,0.567 0 0 0 -0.791,-0.132 z"
         data-name="Path 949"
         id="Path_949" />
    </g>
  </g>
</svg>
