<?xml version="1.0" encoding="UTF-8" standalone="no"?>
<svg
   xmlns:dc="http://purl.org/dc/elements/1.1/"
   xmlns:cc="http://creativecommons.org/ns#"
   xmlns:rdf="http://www.w3.org/1999/02/22-rdf-syntax-ns#"
   xmlns:svg="http://www.w3.org/2000/svg"
   xmlns="http://www.w3.org/2000/svg"
   xmlns:sodipodi="http://sodipodi.sourceforge.net/DTD/sodipodi-0.dtd"
   xmlns:inkscape="http://www.inkscape.org/namespaces/inkscape"
   inkscape:version="1.0 (6e3e5246a0, 2020-05-07)"
   sodipodi:docname="soundwave.svg"
   id="svg16"
   version="1.1"
   viewBox="0 0 56 56"
   height="56"
   width="56">
  <metadata
     id="metadata20">
    <rdf:RDF>
      <cc:Work
         rdf:about="">
        <dc:format>image/svg+xml</dc:format>
        <dc:type
           rdf:resource="http://purl.org/dc/dcmitype/StillImage" />
      </cc:Work>
    </rdf:RDF>
  </metadata>
  <sodipodi:namedview
     inkscape:current-layer="icon"
     inkscape:window-maximized="1"
     inkscape:window-y="0"
     inkscape:window-x="0"
     inkscape:cy="33.603856"
     inkscape:cx="-12.214086"
     inkscape:zoom="5.5432121"
     showgrid="false"
     id="namedview18"
     inkscape:window-height="1052"
     inkscape:window-width="1920"
     inkscape:pageshadow="2"
     inkscape:pageopacity="0"
     guidetolerance="10"
     gridtolerance="10"
     objecttolerance="10"
     borderopacity="1"
     bordercolor="#666666"
     pagecolor="#ffffff" />
  <defs
     id="defs5">
    <clipPath
       id="clip-icon">
      <rect
         id="rect2"
         height="56"
         width="56" />
    </clipPath>
  </defs>
  <g
     clip-path="url(#clip-icon)"
     id="icon">
    <rect
       style="fill:none"
       id="rect7"
       fill="#fff"
       height="56"
       width="56" />
    <g
       transform="translate(27.11 1.11)"
       data-name="Group 2368"
       id="Group_2368">
      <circle
         transform="translate(-26.11 -0.11)"
         fill="#121212"
         r="27"
         cy="27"
         cx="27"
         data-name="Ellipse 492"
         id="Ellipse_492" />
      <g
         transform="translate(-8.714 10.168)"
         data-name="Group 2367"
         id="Group_2367">
        <path
           fill="#a5a093"
           transform="translate(-2301.286 -2175.54)"
           d="M2301.628,2184.209a.9.9,0,0,0-.148,1.269c.051.064,5.041,6.521,0,12.9a.9.9,0,0,0,1.418,1.121c5.916-7.482.06-15.062,0-15.138A.9.9,0,0,0,2301.628,2184.209Z"
           data-name="Path 947"
           id="Path_947" />
        <path
           fill="#a5a093"
           transform="translate(-2335.492 -2158.799)"
           d="M2342.524,2164.188a.905.905,0,0,0-.2,1.262c.288.4,6.979,9.875,0,19.474a.9.9,0,1,0,1.461,1.062c7.761-10.676.079-21.49,0-21.6A.9.9,0,0,0,2342.524,2164.188Z"
           data-name="Path 948"
           id="Path_948" />
        <path
           fill="#a5a093"
           transform="translate(-2366.307 -2132)"
           d="M2379.343,2132.168a.9.9,0,0,0-.213,1.26c.107.149,10.508,15.131,0,29.92a.9.9,0,0,0,1.473,1.047c11.244-15.824.114-31.853,0-32.014A.9.9,0,0,0,2379.343,2132.168Z"
           data-name="Path 949"
           id="Path_949" />
      </g>
    </g>
  </g>
</svg>
