<svg xmlns="http://www.w3.org/2000/svg" xmlns:xlink="http://www.w3.org/1999/xlink" width="56" height="56" viewBox="0 0 56 56">
  <defs>
    <clipPath id="clip-icon_parco">
      <rect width="56" height="56"/>
    </clipPath>
  </defs>
  <g id="icon_parco" data-name="icon – parco" clip-path="url(#clip-icon_parco)" fill="#121212">
    <rect width="56" height="56" />
    <g id="Group_2480" data-name="Group 2480" transform="translate(-3100.743 -2020.22)">
      <circle id="Ellipse_492" data-name="Ellipse 492" cx="4.654" cy="4.654" r="4.654" transform="translate(3124.687 2023.22)" fill="#a5a093"/>
      <path id="Path_3687" data-name="Path 3687" d="M3118.8,2041.978a5.317,5.317,0,0,0-2.586,1.681l-4.136,7.175a2.632,2.632,0,0,0,.969,3.555,2.27,2.27,0,0,0,1.293.323,2.627,2.627,0,0,0,2.263-1.293l3.683-6.464,2.781-1.229-2,8.985a.486.486,0,0,1-.065.259l-1.1,8.209-6.982,11.378a2.551,2.551,0,0,0,.841,3.555,2.711,2.711,0,0,0,1.358.388,2.6,2.6,0,0,0,2.2-1.228l7.3-11.894a2.866,2.866,0,0,0,.387-1.035l.841-6.206,7.176,5.171v12.412a2.586,2.586,0,1,0,5.171,0v-13.7a2.514,2.514,0,0,0-1.035-2.069l-7.822-5.688,1.681-6.982,1.874,2.327a2.471,2.471,0,0,0,1.1.776l7.369,2.715a2.576,2.576,0,1,0,1.745-4.848l-6.723-2.456c-1.034-1.293-2.134-2.586-3.167-3.879-.9-1.1-1.745-2.65-3.3-2.909a17.081,17.081,0,0,0-1.81-.129,12.969,12.969,0,0,0-1.616-.065,4.082,4.082,0,0,0-1.487.517Z" transform="translate(0 -5.506)" fill="#a5a093"/>
    </g>
  </g>
</svg>
